Coordinates
version=1
nRows=9
nColumns=40
inDegrees=yes

Units are S.I. units (second, meters, Newtons, ...)
If the header above contains a line with 'inDegrees', this indicates whether rotational values are in degrees (yes) or radians (no).

endheader
time	pelvis_tilt	pelvis_list	pelvis_rotation	pelvis_tx	pelvis_ty	pelvis_tz	hip_flexion_r	hip_adduction_r	hip_rotation_r	knee_angle_r	knee_angle_r_beta	ankle_angle_r	subtalar_angle_r	mtp_angle_r	hip_flexion_l	hip_adduction_l	hip_rotation_l	knee_angle_l	knee_angle_l_beta	ankle_angle_l	subtalar_angle_l	mtp_angle_l	lumbar_extension	lumbar_bending	lumbar_rotation	arm_flex_r	arm_add_r	arm_rot_r	elbow_flex_r	pro_sup_r	wrist_flex_r	wrist_dev_r	arm_flex_l	arm_add_l	arm_rot_l	elbow_flex_l	pro_sup_l	wrist_flex_l	wrist_dev_l
      4.72499999999999964473	      6.03733648544876011499	     -2.48811021479231042619	   -178.52104360567057028675	      0.41009970713012333654	      0.63613772536462664942	     -0.99418787292022592350	     64.11013480236205452911	    -49.59178091476012895100	     -3.93230229087612048744	     63.01471666541687710605	      1.09981428302286654564	     -1.09726989049881296090	      0.00000000000000000000	      0.00000000000000000000	     60.76376169924620285201	    -47.03031082814921859381	    -14.58115120414579912733	     61.65931865746079409973	      1.07615812510906061483	     -1.28100872646851127179	      0.00000000000000000000	      0.00000000000000000000	    -60.26929773680257085289	      1.39943792029992497561	      0.97618812897625240055	     60.23864861334686793271	     -6.40770377502465926511	     31.73784408272507917559	      1.37577645514305890728	     70.66925950074984541516	      0.00000000000000000000	      0.00000000000000000000	     53.50732634810336207920	     -1.81959463923972641908	     26.21547059964471770854	      0.99643763125089701571	      4.46508849961091058844	      0.00000000000000000000	      0.00000000000000000000
      4.73000000000000042633	      6.15393995046134634208	     -2.47777307723583950505	   -178.49779538187888761058	      0.40995104022748024564	      0.63658249667082666967	     -0.99469276757342894868	     64.10618913811458696728	    -49.59212843076812049503	     -4.07780620893266387839	     62.98524788958728493071	      1.09929995585810802439	     -1.07771328294142265669	      0.00000000000000000000	      0.00000000000000000000	     60.77720068707361633642	    -47.00450174530604385836	    -14.62109206695572538592	     61.49222598064295652875	      1.07324180774261845883	     -1.35703898947791024021	      0.00000000000000000000	      0.00000000000000000000	    -60.22355582262207462918	      1.39180971784849627504	      0.98958343190457520588	     60.25016756057051026119	     -6.38005398675954182863	     31.73871732357648411949	      1.38885398111892621742	     70.68769445009419882808	      0.00000000000000000000	      0.00000000000000000000	     53.40741774084589366112	     -1.90196632992361314152	     26.19768558702107341674	      0.97078023836612137298	      4.45378152843103247704	      0.00000000000000000000	      0.00000000000000000000
      4.73500000000000031974	      6.01575845211748294616	     -2.30765336216633532018	   -178.40794274688659015737	      0.40944299515148419033	      0.63787887949637278595	     -0.99512296267780320225	     63.40163189166399604346	    -49.59429272236959462816	     -4.71935389100234914395	     62.83479751110328948016	      1.09667410139269061453	     -0.96669027740580693031	      0.00000000000000000000	      0.00000000000000000000	     60.54443945913687485927	    -47.05428909995597308580	    -14.64707419823714751317	     61.15759768940394280889	      1.06740144229017519528	     -1.68296020044260119519	      0.00000000000000000000	      0.00000000000000000000	    -60.43123760435886993037	      1.50799439685889780094	      1.13361436977785889901	     60.19616735728263989813	     -6.24617616494732796895	     31.52037606429782812256	      1.41689946856133319741	     66.62052560057533412419	      0.00000000000000000000	      0.00000000000000000000	     56.06114958995457442370	     -2.67737609090294759184	     14.20742448202327956608	      1.05480261456795054720	      4.64400271486119198272	      0.00000000000000000000	      0.00000000000000000000
      4.74000000000000021316	      6.09866187712832452661	     -2.20478770159647075033	   -178.32748348740565802473	      0.40927679761277924175	      0.63847406945899431996	     -0.99550416908561101259	     63.21710500291364098757	    -49.59555778954783988866	     -5.04538368612087406717	     62.79610706042741696820	      1.09599882563931627644	     -1.01280787524773052688	      0.00000000000000000000	      0.00000000000000000000	     60.62832802689002420493	    -47.01925326133242322157	    -14.53338525657138546876	     60.95302960131650138464	      1.06383105560853952198	     -1.78348970807649265247	      0.00000000000000000000	      0.00000000000000000000	    -60.34486398270556151147	      1.47309038406640202545	      1.48420096882875918176	     60.08008224159475219039	     -6.66717352929291973140	     30.83481422115281844754	      1.43755070337988399842	     69.90558965633519505900	      0.00000000000000000000	      0.00000000000000000000	     58.61639802737737170446	     -3.50599484367278790842	      3.38209561200631148026	      1.11306284805129251936	      5.03937076171227271715	      0.00000000000000000000	      0.00000000000000000000
      4.74500000000000010658	      6.24129129175138164243	     -2.29549223352228581874	   -178.31934928891962499620	      0.40916397028028461680	      0.63892623812794280269	     -0.99617709741212789876	     63.41599782274426644335	    -49.59136469822916382100	     -4.94771577091003145199	     62.79104046639157843401	      1.09591039689152891512	     -1.02874032444149676735	      0.00000000000000000000	      0.00000000000000000000	     60.53350929370603950019	    -46.94394336372135967395	    -14.73034482976133396903	     60.73567746494700969606	      1.06003754519264825618	     -1.94578664716908833476	      0.00000000000000000000	      0.00000000000000000000	    -60.27245062328155000841	      1.47186151671225284865	      1.37905597798692003408	     60.22062294725075304314	     -6.64922355119529484568	     30.53417943211308482887	      1.39198133239129817618	     73.13813846310161181918	      0.00000000000000000000	      0.00000000000000000000	     58.22680955399967928088	     -3.48022723039893877583	      5.90534578245991159662	      1.12763675849313949051	      4.82485538981637418487	      0.00000000000000000000	      0.00000000000000000000
      4.75000000000000000000	      6.03647126254354926544	     -1.89952373234533178348	   -178.10851450946978502543	      0.40881288187027248204	      0.64028780617008385079	     -0.99639345386380084868	     62.30084268497985533486	    -49.59596369805359472593	     -6.06422987998194251702	     62.63937894981521736781	      1.09326340407870348237	     -0.90362718142056652759	      0.00000000000000000000	      0.00000000000000000000	     60.63784768815352776983	    -46.99037327629423543840	    -14.22319996288465127066	     60.49593983059208568420	      1.05585333413221249543	     -2.12998344780508963581	      0.00000000000000000000	      0.00000000000000000000	    -60.58977373817100442466	      1.81077674241581698666	      1.67860758328604453560	     60.29405079034708592189	     -6.81642134719742642801	     30.47768283748785833609	      1.41052249480848002072	     74.68201299578619511976	      0.00000000000000000000	      0.00000000000000000000	     58.60394405870786016521	     -3.46116568316732875488	      4.05355724561879160461	      1.12490715505062155444	      4.88347311691790864074	      0.00000000000000000000	      0.00000000000000000000
      4.75499999999999989342	      5.96875957826369685222	     -1.93740500410170413126	   -178.11926281454529430448	      0.40853694337600054975	      0.64128833092875170419	     -0.99707555074318410249	     62.11237149324628603608	    -49.59414173085627908222	     -6.19287019913395653248	     62.59114901319480850361	      1.09242163288664917431	     -0.90139487835759435352	      0.00000000000000000000	      0.00000000000000000000	     60.25097016886955003656	    -46.97912658327933854707	    -14.50193359815343185915	     60.20886733711733995733	      1.05084297392916825586	     -2.22150338224636900719	      0.00000000000000000000	      0.00000000000000000000	    -60.74656676132805444013	      1.74200289310705547230	      1.71105370667767653359	     60.33105315583721761641	     -6.84136890993286339580	     29.99283080409272628231	      1.41890488375696222079	     75.41431236644405089464	      0.00000000000000000000	      0.00000000000000000000	     58.69047322023190815798	     -3.46220941400413151356	      3.93925399074713356029	      1.11515002075828051353	      4.99147385967298440335	      0.00000000000000000000	      0.00000000000000000000
      4.75999999999999978684	      6.11605029989725945683	     -1.79035026128399343825	   -177.98502611924931215981	      0.40843879514098663241	      0.64188294863676764734	     -0.99752488826992602444	     61.88843501058596530129	    -49.59711813932319302012	     -6.66424392684776112361	     62.51554960510718217392	      1.09110217430296119190	     -0.91190702755304997584	      0.00000000000000000000	      0.00000000000000000000	     60.49807840799154945444	    -46.89059705181158221876	    -14.21942039051845441122	     59.97470869996125486523	      1.04675613473881190529	     -2.42345018303475212562	      0.00000000000000000000	      0.00000000000000000000	    -60.65511161749504509544	      1.92362891955109982511	      1.73518315267721634498	     60.37102968724239104858	     -6.72538562621613511538	     29.91533631782679947264	      1.36717298094253569829	     74.63018455022049124636	      0.00000000000000000000	      0.00000000000000000000	     58.69936588137186106451	     -3.53616054855723405126	      3.70897673337913458269	      1.09137044004106331663	      5.29469683993693429613	      0.00000000000000000000	      0.00000000000000000000
      4.76499999999999968026	      5.79785676141589778609	     -2.16157405241310263122	   -178.19894335339208168989	      0.40816024315272375622	      0.64341198559084789022	     -0.99871229959450746883	     61.89528537638839367219	    -49.58352046017080283491	     -6.20295953472528083239	     62.46552214438654004880	      1.09022903039697394156	     -0.90682681200936399168	      0.00000000000000000000	      0.00000000000000000000	     59.24158637447300179701	    -46.89934537143558657135	    -15.27758654762102175084	     59.57598826601721242469	      1.03979715037150777235	     -2.54148280712503238377	      0.00000000000000000000	      0.00000000000000000000	    -61.18556234191373022213	      1.57644336180515631796	      1.27641424097914057967	     60.63318069116314035227	     -6.30044374099815041035	     29.70251439488087541463	      1.37833401043436576394	     73.05311323489809183229	      0.00000000000000000000	      0.00000000000000000000	     54.93730064253727363166	     -1.76963213573361821673	     22.85985632764732855549	      1.10193305827770360317	      4.78271339652421634270	      0.00000000000000000000	      0.00000000000000000000
